<svg xml:space="preserve" width="92.167" height="92.167" xmlns="http://www.w3.org/2000/svg"><path d="M86.157 71.392h-1.436c-.987 0-1.786.801-1.786 1.786a5.56 5.56 0 0 1-5.553 5.553 5.561 5.561 0 0 1-5.556-5.553c0-5.824-4.737-10.563-10.56-10.563-5.826 0-10.566 4.739-10.566 10.563a5.558 5.558 0 0 1-5.552 5.553 5.567 5.567 0 0 1-4.087-1.809 1.785 1.785 0 0 0-3.101 1.207v1.95c0 .548.251 1.065.684 1.404a10.43 10.43 0 0 0 6.505 2.257c5.824 0 10.563-4.737 10.563-10.563a5.562 5.562 0 0 1 5.555-5.556 5.56 5.56 0 0 1 5.552 5.556c0 5.825 4.739 10.563 10.563 10.563 5.823 0 10.561-4.737 10.561-10.563 0-.985-.798-1.785-1.786-1.785z" style="fill:#d40000" transform="translate(-3.917 -3.666)"/>
    <path d="M54.922 15.509H14.745a3.078 3.078 0 0 0 0 6.157h40.177a3.078 3.078 0 1 0 0-6.157zM54.922 27.823H14.745a3.078 3.078 0 0 0-3.077 3.079 3.078 3.078 0 0 0 3.077 3.079h40.177a3.078 3.078 0 1 0 0-6.158z"
          style="fill:#00f" transform="translate(-3.917 -3.666)"/>
    <path d="M78.166 0H14C6.28 0 0 6.28 0 14v64.167c0 7.72 6.28 14 14 14h64.167c7.72 0 14-6.28 14-14V14c-.001-7.72-6.281-14-14.001-14zM4 78.166V14C4 8.486 8.486 4 14 4h64.167a9.93 9.93 0 0 1 5.896 1.942L5.941 84.063A9.941 9.941 0 0 1 4 78.166zm84.166 0c0 5.514-4.486 10-10 10H14c-1.862 0-3.6-.521-5.095-1.411l77.85-77.85A9.916 9.916 0 0 1 88.166 14z"/></svg>